<?xml version="1.0" ?><svg fill="none" height="24" viewBox="0 0 24 24" width="24" xmlns="http://www.w3.org/2000/svg"><path clip-rule="evenodd" d="M12.4647 4.46422C14.4173 2.51184 17.583 2.51193 19.5355 4.46447C21.4882 6.41709 21.4882 9.58291 19.5355 11.5355L11.5355 19.5355C9.58291 21.4882 6.41709 21.4882 4.46447 19.5355C2.51195 17.583 2.51184 14.4174 4.46414 12.4648C4.46425 12.4647 4.46403 12.4649 4.46414 12.4648L7.87835 9.04743C9.04993 7.87586 10.9497 7.87553 12.1213 9.04711C13.2929 10.2187 13.2929 12.1182 12.1213 13.2897L9.70757 15.7066C9.3173 16.0974 8.68413 16.0978 8.29335 15.7076C7.90258 15.3173 7.90216 14.6841 8.29243 14.2934L10.7066 11.876C11.0972 11.4855 11.0976 10.8518 10.7071 10.4613C10.3167 10.0709 9.68377 10.0708 9.29322 10.461L5.87901 13.8784C4.70743 15.0499 4.70711 16.9497 5.87868 18.1213C7.05025 19.2929 8.94975 19.2929 10.1213 18.1213L18.1213 10.1213C19.2929 8.94975 19.2929 7.05025 18.1213 5.87868C16.9497 4.70711 15.0503 4.70711 13.8787 5.87868L13.0494 6.70735C12.6588 7.09774 12.0256 7.09752 11.6352 6.70686C11.2448 6.31621 11.2451 5.68304 11.6357 5.29265L12.4647 4.46422C12.4648 4.46414 12.4646 4.4643 12.4647 4.46422Z" fill="black" fill-rule="evenodd"/></svg>