<svg width="32" height="32" viewBox="0 0 32 32" fill="none" xmlns="http://www.w3.org/2000/svg">
<g clip-path="url(#clip0_224_5)">
<path d="M26 4H6C5.46957 4 4.96086 4.21071 4.58579 4.58579C4.21071 4.96086 4 5.46957 4 6V26C4 26.5304 4.21071 27.0391 4.58579 27.4142C4.96086 27.7893 5.46957 28 6 28H26C26.5304 28 27.0391 27.7893 27.4142 27.4142C27.7893 27.0391 28 26.5304 28 26V6C28 5.46957 27.7893 4.96086 27.4142 4.58579C27.0391 4.21071 26.5304 4 26 4ZM14 21.5L9 16.5427L10.5908 15L14 18.3456L21.4087 11L23.0005 12.5772L14 21.5Z" fill="#29BD25"/>
</g>
<defs>
<clipPath id="clip0_224_5">
<rect width="32" height="32" fill="white"/>
</clipPath>
</defs>
</svg>
