<svg width="30" height="30" viewBox="0 0 30 30" fill="none" xmlns="http://www.w3.org/2000/svg">
<g clip-path="url(#clip0_235_13)">
<path d="M23.75 0H6.25C4.59301 0.00198482 3.00445 0.661102 1.83277 1.83277C0.661102 3.00445 0.00198482 4.59301 0 6.25L0 23.75C0.00198482 25.407 0.661102 26.9956 1.83277 28.1672C3.00445 29.3389 4.59301 29.998 6.25 30H23.75C25.407 29.998 26.9956 29.3389 28.1672 28.1672C29.3389 26.9956 29.998 25.407 30 23.75V6.25C29.998 4.59301 29.3389 3.00445 28.1672 1.83277C26.9956 0.661102 25.407 0.00198482 23.75 0ZM27.5 23.75C27.5 24.7446 27.1049 25.6984 26.4017 26.4017C25.6984 27.1049 24.7446 27.5 23.75 27.5H6.25C5.25544 27.5 4.30161 27.1049 3.59835 26.4017C2.89509 25.6984 2.5 24.7446 2.5 23.75V6.25C2.5 5.25544 2.89509 4.30161 3.59835 3.59835C4.30161 2.89509 5.25544 2.5 6.25 2.5H23.75C24.7446 2.5 25.6984 2.89509 26.4017 3.59835C27.1049 4.30161 27.5 5.25544 27.5 6.25V23.75Z" fill="#156213"/>
</g>
<defs>
<clipPath id="clip0_235_13">
<rect width="30" height="30" fill="white"/>
</clipPath>
</defs>
</svg>
