<svg width="31" height="31" viewBox="0 0 31 31" fill="none" xmlns="http://www.w3.org/2000/svg">
<path d="M26.4893 23.4074L18.5819 15.5L26.4893 7.59258C27.343 6.73887 27.343 5.36445 26.4893 4.51074C25.6356 3.65703 24.2612 3.65703 23.4074 4.51074L15.5 12.4182L7.5926 4.51074C6.73889 3.65703 5.36448 3.65703 4.51077 4.51074C3.65706 5.36445 3.65706 6.73887 4.51077 7.59258L12.4182 15.5L4.51077 23.4074C3.65706 24.2611 3.65706 25.6355 4.51077 26.4893C5.36448 27.343 6.73889 27.343 7.5926 26.4893L15.5 18.5818L23.4074 26.4893C24.2612 27.343 25.6356 27.343 26.4893 26.4893C27.3369 25.6355 27.3369 24.2551 26.4893 23.4074Z" fill="white"/>
</svg>
