<svg width="60" height="60" viewBox="0 0 60 60" fill="none" xmlns="http://www.w3.org/2000/svg">
<path d="M45 58.125H15C13.5082 58.125 12.0774 57.5324 11.0225 56.4775C9.96763 55.4226 9.375 53.9918 9.375 52.5V16.875C9.375 16.3777 9.57254 15.9008 9.92418 15.5492C10.2758 15.1975 10.7527 15 11.25 15C11.7473 15 12.2242 15.1975 12.5758 15.5492C12.9275 15.9008 13.125 16.3777 13.125 16.875V52.5C13.125 52.9973 13.3225 53.4742 13.6742 53.8258C14.0258 54.1775 14.5027 54.375 15 54.375H45C45.4973 54.375 45.9742 54.1775 46.3258 53.8258C46.6775 53.4742 46.875 52.9973 46.875 52.5V16.875C46.875 16.3777 47.0725 15.9008 47.4242 15.5492C47.7758 15.1975 48.2527 15 48.75 15C49.2473 15 49.7242 15.1975 50.0758 15.5492C50.4275 15.9008 50.625 16.3777 50.625 16.875V52.5C50.625 53.9918 50.0324 55.4226 48.9775 56.4775C47.9226 57.5324 46.4918 58.125 45 58.125Z" fill="#6F6F6F"/>
<path d="M52.5 13.125H7.5C7.00272 13.125 6.52581 12.9275 6.17417 12.5758C5.82254 12.2242 5.625 11.7473 5.625 11.25C5.625 10.7527 5.82254 10.2758 6.17417 9.92418C6.52581 9.57254 7.00272 9.375 7.5 9.375H52.5C52.9973 9.375 53.4742 9.57254 53.8258 9.92418C54.1775 10.2758 54.375 10.7527 54.375 11.25C54.375 11.7473 54.1775 12.2242 53.8258 12.5758C53.4742 12.9275 52.9973 13.125 52.5 13.125Z" fill="#6F6F6F"/>
<path d="M37.5 13.125C37.0027 13.125 36.5258 12.9275 36.1742 12.5758C35.8225 12.2242 35.625 11.7473 35.625 11.25V5.625H24.375V11.25C24.375 11.7473 24.1775 12.2242 23.8258 12.5758C23.4742 12.9275 22.9973 13.125 22.5 13.125C22.0027 13.125 21.5258 12.9275 21.1742 12.5758C20.8225 12.2242 20.625 11.7473 20.625 11.25V3.75C20.625 3.25272 20.8225 2.77581 21.1742 2.42417C21.5258 2.07254 22.0027 1.875 22.5 1.875H37.5C37.9973 1.875 38.4742 2.07254 38.8258 2.42417C39.1775 2.77581 39.375 3.25272 39.375 3.75V11.25C39.375 11.7473 39.1775 12.2242 38.8258 12.5758C38.4742 12.9275 37.9973 13.125 37.5 13.125Z" fill="#6F6F6F"/>
<path d="M30 48.75C29.5027 48.75 29.0258 48.5525 28.6742 48.2008C28.3225 47.8492 28.125 47.3723 28.125 46.875V20.625C28.125 20.1277 28.3225 19.6508 28.6742 19.2992C29.0258 18.9475 29.5027 18.75 30 18.75C30.4973 18.75 30.9742 18.9475 31.3258 19.2992C31.6775 19.6508 31.875 20.1277 31.875 20.625V46.875C31.875 47.3723 31.6775 47.8492 31.3258 48.2008C30.9742 48.5525 30.4973 48.75 30 48.75Z" fill="#6F6F6F"/>
<path d="M39.375 45C38.8777 45 38.4008 44.8025 38.0492 44.4508C37.6975 44.0992 37.5 43.6223 37.5 43.125V24.375C37.5 23.8777 37.6975 23.4008 38.0492 23.0492C38.4008 22.6975 38.8777 22.5 39.375 22.5C39.8723 22.5 40.3492 22.6975 40.7008 23.0492C41.0525 23.4008 41.25 23.8777 41.25 24.375V43.125C41.25 43.6223 41.0525 44.0992 40.7008 44.4508C40.3492 44.8025 39.8723 45 39.375 45Z" fill="#6F6F6F"/>
<path d="M20.625 45C20.1277 45 19.6508 44.8025 19.2992 44.4508C18.9475 44.0992 18.75 43.6223 18.75 43.125V24.375C18.75 23.8777 18.9475 23.4008 19.2992 23.0492C19.6508 22.6975 20.1277 22.5 20.625 22.5C21.1223 22.5 21.5992 22.6975 21.9508 23.0492C22.3025 23.4008 22.5 23.8777 22.5 24.375V43.125C22.5 43.6223 22.3025 44.0992 21.9508 44.4508C21.5992 44.8025 21.1223 45 20.625 45Z" fill="#6F6F6F"/>
</svg>
