<svg width="100" height="100" viewBox="0 0 100 100" fill="none" xmlns="http://www.w3.org/2000/svg">
<g clip-path="url(#clip0_216_62)">
<path d="M87.6953 5.95312V49.207H84.0332V7.14258C84.0332 5.38477 82.7227 3.96875 81.1035 3.96875H30.0254L33.6543 0H82.2012C85.2344 0 87.6953 2.66602 87.6953 5.95312Z" fill="#005975"/>
<path d="M15.9141 19.4043V49.207H12.252V23.4121L15.9141 19.4043Z" fill="#005975"/>
<path d="M33.6543 0V17.1875C33.6543 20.623 31.1055 23.4082 27.9668 23.4082H12.252L15.9141 19.4043L30.0254 3.97461L33.6543 0Z" fill="#005975"/>
<path d="M51.7754 60.3516C51.0829 60.1571 50.3656 60.0656 49.6465 60.0801H47.8516V69.2148H49.916C50.3691 69.2148 50.7246 69.2031 50.9824 69.1777C51.2546 69.1499 51.5223 69.0882 51.7793 68.9941C52.0426 68.9035 52.286 68.7629 52.4961 68.5801C53.4076 67.8105 53.8633 66.4831 53.8633 64.5976C53.8633 63.2695 53.6628 62.2747 53.2617 61.6133C52.8607 60.9518 52.3652 60.5312 51.7754 60.3516Z" fill="#005975"/>
<path d="M37.125 59.9609H35.291V64.0742H37.125C37.6688 64.0896 38.2119 64.0238 38.7363 63.8789C39.1282 63.7709 39.4748 63.5394 39.7246 63.2187C39.9644 62.8647 40.0836 62.4428 40.0645 62.0156C40.086 61.4827 39.8981 60.9625 39.541 60.5664C39.1491 60.1628 38.3437 59.9609 37.125 59.9609Z" fill="#005975"/>
<path d="M95.7637 53.1738H4.23633C1.89258 53.1738 0 54.9512 0 57.1426V72.2227C0 74.4141 1.89648 76.1914 4.23633 76.1914H95.7637C98.1074 76.1914 100 74.4141 100 72.2227V57.1426C100 54.9512 98.1035 53.1738 95.7637 53.1738ZM41.5605 65.0723C40.7155 65.7767 39.4577 66.1296 37.7871 66.1309H35.291V69.9414C35.291 70.4857 35.1608 70.8984 34.9004 71.1797C34.7782 71.317 34.6275 71.4259 34.4588 71.4988C34.2901 71.5716 34.1075 71.6067 33.9238 71.6016C33.7381 71.6087 33.5531 71.5752 33.3817 71.5033C33.2103 71.4314 33.0567 71.323 32.9316 71.1855C32.6816 70.9069 32.5566 70.498 32.5566 69.959V59.5859C32.5566 58.987 32.694 58.5586 32.9688 58.3008C33.2435 58.043 33.681 57.9128 34.2812 57.9102H37.7793C38.5819 57.8852 39.3842 57.9653 40.166 58.1484C40.6936 58.2906 41.1819 58.5511 41.5938 58.9102C41.9961 59.2673 42.3086 59.7143 42.5059 60.2148C42.7217 60.7672 42.8278 61.3563 42.8184 61.9492C42.8236 63.3242 42.4043 64.3652 41.5605 65.0723ZM56.4043 66.8203C56.2773 67.4502 56.0574 68.0577 55.752 68.623C55.4576 69.1612 55.0761 69.647 54.6231 70.0605C54.2706 70.3797 53.8715 70.6432 53.4394 70.8418C53.0001 71.0418 52.5355 71.1811 52.0586 71.2559C51.5067 71.3399 50.9489 71.3798 50.3906 71.375H46.8477C46.4608 71.399 46.0743 71.3216 45.7266 71.1504C45.4859 71.0126 45.3097 70.785 45.2363 70.5176C45.1513 70.1707 45.1126 69.8141 45.1211 69.457V59.5859C45.1211 59 45.2513 58.5749 45.5117 58.3105C45.7721 58.0462 46.1973 57.916 46.7871 57.9199H50.3398C51.1405 57.906 51.9397 57.9926 52.7188 58.1777C53.386 58.3521 54.0025 58.6821 54.5176 59.1406C55.9173 60.3398 56.6178 62.1628 56.6191 64.6094C56.6267 65.3515 56.5573 66.0925 56.4121 66.8203H56.4043ZM68.0195 59.7285C67.7447 59.9423 67.3998 60.0455 67.0527 60.0176H61.6816V63.4609H66.1738C66.5089 63.4347 66.8418 63.5343 67.1074 63.7402C67.209 63.8358 67.2889 63.952 67.3418 64.081C67.3947 64.2101 67.4193 64.3489 67.4141 64.4883C67.4205 64.6277 67.3959 64.7669 67.3418 64.8956C67.2877 65.0243 67.2057 65.1394 67.1016 65.2324C66.8362 65.4343 66.5063 65.5322 66.1738 65.5078H61.6816V69.9414C61.6816 70.5039 61.5514 70.9212 61.291 71.1934C61.1626 71.3234 61.0096 71.4266 60.841 71.4971C60.6723 71.5676 60.4914 71.6038 60.3086 71.6038C60.1258 71.6038 59.9449 71.5676 59.7762 71.4971C59.6076 71.4266 59.4546 71.3234 59.3262 71.1934C59.0723 70.9173 58.9453 70.5013 58.9453 69.9453V59.5937C58.9333 59.2651 58.9933 58.9378 59.1211 58.6348C59.2299 58.3934 59.4239 58.2008 59.666 58.0938C59.9674 57.9703 60.2917 57.9124 60.6172 57.9238H67.043C67.3946 57.8886 67.7466 57.9885 68.0273 58.2031C68.1282 58.3027 68.2083 58.4213 68.263 58.5521C68.3176 58.6828 68.3458 58.8231 68.3458 58.9648C68.3458 59.1066 68.3176 59.2469 68.263 59.3776C68.2083 59.5084 68.1282 59.627 68.0273 59.7266L68.0195 59.7285Z" fill="#005975"/>
<path d="M85.8906 78.1738C84.8789 78.1738 84.0586 79.0625 84.0586 80.1582V92.8535C84.0586 94.6113 82.748 96.0273 81.1289 96.0273H18.8711C17.252 96.0273 15.9414 94.6074 15.9414 92.8535V80.1582C15.9414 79.0625 15.1211 78.1738 14.1094 78.1738C13.0977 78.1738 12.2793 79.0625 12.2793 80.1582V94.0469C12.2793 97.334 14.7402 100 17.7734 100H82.2266C85.2578 100 87.7188 97.334 87.7188 94.0469V80.1582C87.7207 79.0625 86.9023 78.1738 85.8906 78.1738Z" fill="#005975"/>
<rect y="51" width="100" height="26" rx="5" fill="#005975"/>
<path d="M35.4205 72H30.2642V57.4545H35.4631C36.9261 57.4545 38.1856 57.7457 39.2415 58.3281C40.2973 58.9058 41.1094 59.7367 41.6776 60.821C42.2505 61.9053 42.5369 63.2027 42.5369 64.7131C42.5369 66.2282 42.2505 67.5303 41.6776 68.6193C41.1094 69.7083 40.2926 70.544 39.2273 71.1264C38.1667 71.7088 36.8977 72 35.4205 72ZM33.3395 69.3651H35.2926C36.2017 69.3651 36.9664 69.2041 37.5866 68.8821C38.2116 68.5554 38.6804 68.0511 38.9929 67.3693C39.3101 66.6828 39.4688 65.7973 39.4688 64.7131C39.4688 63.6383 39.3101 62.7599 38.9929 62.0781C38.6804 61.3963 38.214 60.8944 37.5938 60.5724C36.9735 60.2505 36.2088 60.0895 35.2997 60.0895H33.3395V69.3651ZM58.1815 64.7273C58.1815 66.3134 57.8808 67.6629 57.2795 68.7756C56.6829 69.8883 55.8685 70.7382 54.8363 71.3253C53.8088 71.9077 52.6535 72.1989 51.3704 72.1989C50.0778 72.1989 48.9177 71.9053 47.8903 71.3182C46.8628 70.7311 46.0508 69.8812 45.4542 68.7685C44.8576 67.6558 44.5593 66.3087 44.5593 64.7273C44.5593 63.1411 44.8576 61.7917 45.4542 60.679C46.0508 59.5663 46.8628 58.7187 47.8903 58.1364C48.9177 57.5492 50.0778 57.2557 51.3704 57.2557C52.6535 57.2557 53.8088 57.5492 54.8363 58.1364C55.8685 58.7187 56.6829 59.5663 57.2795 60.679C57.8808 61.7917 58.1815 63.1411 58.1815 64.7273ZM55.0636 64.7273C55.0636 63.6998 54.9097 62.8333 54.6019 62.1278C54.2989 61.4223 53.8704 60.8873 53.3164 60.5227C52.7624 60.1581 52.1138 59.9759 51.3704 59.9759C50.627 59.9759 49.9783 60.1581 49.4244 60.5227C48.8704 60.8873 48.4395 61.4223 48.1317 62.1278C47.8287 62.8333 47.6772 63.6998 47.6772 64.7273C47.6772 65.7547 47.8287 66.6212 48.1317 67.3267C48.4395 68.0322 48.8704 68.5672 49.4244 68.9318C49.9783 69.2964 50.627 69.4787 51.3704 69.4787C52.1138 69.4787 52.7624 69.2964 53.3164 68.9318C53.8704 68.5672 54.2989 68.0322 54.6019 67.3267C54.9097 66.6212 55.0636 65.7547 55.0636 64.7273ZM73.2933 62.5469H70.1825C70.1257 62.1444 70.0097 61.7869 69.8345 61.4744C69.6593 61.1572 69.4344 60.8873 69.1598 60.6648C68.8852 60.4422 68.5679 60.2718 68.2081 60.1534C67.853 60.035 67.4671 59.9759 67.0504 59.9759C66.2976 59.9759 65.6418 60.1629 65.0831 60.5369C64.5244 60.9062 64.0911 61.446 63.7834 62.1562C63.4756 62.8617 63.3217 63.7187 63.3217 64.7273C63.3217 65.7642 63.4756 66.6354 63.7834 67.3409C64.0959 68.0464 64.5315 68.5791 65.0902 68.9389C65.6489 69.2988 66.2952 69.4787 67.0291 69.4787C67.4411 69.4787 67.8222 69.4242 68.1726 69.3153C68.5277 69.2064 68.8426 69.0478 69.1172 68.8395C69.3918 68.6264 69.6191 68.3684 69.799 68.0653C69.9837 67.7623 70.1115 67.4167 70.1825 67.0284L73.2933 67.0426C73.2128 67.7102 73.0116 68.3542 72.6896 68.9744C72.3724 69.59 71.9439 70.1416 71.4041 70.6293C70.8691 71.1122 70.2299 71.4957 69.4865 71.7798C68.7479 72.0592 67.9122 72.1989 66.9794 72.1989C65.6821 72.1989 64.522 71.9053 63.4993 71.3182C62.4813 70.7311 61.6764 69.8812 61.0845 68.7685C60.4974 67.6558 60.2038 66.3087 60.2038 64.7273C60.2038 63.1411 60.5021 61.7917 61.0987 60.679C61.6953 59.5663 62.505 58.7187 63.5277 58.1364C64.5504 57.5492 65.701 57.2557 66.9794 57.2557C67.8222 57.2557 68.6035 57.3741 69.3232 57.6108C70.0476 57.8475 70.6892 58.1932 71.2479 58.6477C71.8066 59.0975 72.2611 59.6491 72.6115 60.3026C72.9666 60.956 73.1939 61.7041 73.2933 62.5469Z" fill="white"/>
</g>
<defs>
<clipPath id="clip0_216_62">
<rect width="100" height="100" fill="white"/>
</clipPath>
</defs>
</svg>
