<svg width="24" height="24" viewBox="0 0 24 24" fill="none" xmlns="http://www.w3.org/2000/svg">
<g clip-path="url(#clip0_228_13)">
<path d="M12 0C18.6276 0 24 5.3736 24 12C24 18.6264 18.6276 24 12 24C5.3724 24 0 18.6264 0 12C0 5.3736 5.3724 0 12 0ZM12 2.0004C6.486 2.0004 2.0004 6.486 2.0004 12C2.0004 17.514 6.486 21.9996 12 21.9996C17.514 21.9996 21.9996 17.514 21.9996 12C21.9996 6.486 17.514 2.0004 12 2.0004ZM11.9984 15.0026C12.6602 15.0026 13.1968 15.5393 13.1968 16.2011C13.1968 16.8629 12.6602 17.3995 11.9984 17.3995C11.3365 17.3995 10.8 16.8629 10.8 16.2011C10.8 15.5393 11.3365 15.0026 11.9984 15.0026ZM11.9934 6C12.449 5.99964 12.8258 6.33792 12.8857 6.77717L12.8941 6.89928L12.8984 12.3012C12.8988 12.7982 12.4962 13.2016 11.9992 13.2019C11.5435 13.2023 11.1666 12.864 11.1067 12.4248L11.0984 12.3026L11.0941 6.90072C11.0936 6.40367 11.4962 6.0004 11.9934 6Z" fill="white"/>
</g>
<defs>
<clipPath id="clip0_228_13">
<rect width="24" height="24" fill="white"/>
</clipPath>
</defs>
</svg>
