<svg width="100" height="100" viewBox="0 0 100 100" fill="none" xmlns="http://www.w3.org/2000/svg">
<g clip-path="url(#clip0_216_20)">
<path d="M87.6953 5.95312V49.207H84.0332V7.14258C84.0332 5.38477 82.7227 3.96875 81.1035 3.96875H30.0254L33.6543 0H82.2012C85.2344 0 87.6953 2.66602 87.6953 5.95312Z" fill="#00C2CF"/>
<path d="M15.9141 19.4043V49.207H12.252V23.4121L15.9141 19.4043Z" fill="#00C2CF"/>
<path d="M33.6543 0V17.1875C33.6543 20.623 31.1055 23.4082 27.9668 23.4082H12.252L15.9141 19.4043L30.0254 3.97461L33.6543 0Z" fill="#00C2CF"/>
<path d="M95.7637 53.1738H4.23633C1.89258 53.1738 0 54.9512 0 57.1426V72.2227C0 74.4141 1.89648 76.1914 4.23633 76.1914H95.7637C98.1074 76.1914 100 74.4141 100 72.2227V57.1426C100 54.9512 98.1035 53.1738 95.7637 53.1738ZM47.6953 68.4824C47.7039 68.7593 47.6703 69.0359 47.5957 69.3027C47.522 69.5171 47.3934 69.7084 47.2227 69.8574C47.0124 70.0453 46.7795 70.206 46.5293 70.3359C45.7887 70.7481 45.002 71.0713 44.1855 71.2988C43.3828 71.5076 42.556 71.6094 41.7266 71.6016C40.7629 71.6142 39.8048 71.4528 38.8984 71.125C38.0803 70.8278 37.3375 70.3544 36.7227 69.7383C36.1101 69.1112 35.6392 68.3599 35.3418 67.5352C35.0097 66.6081 34.8463 65.6291 34.8594 64.6445C34.8479 63.6669 35.0066 62.6948 35.3281 61.7715C35.6166 60.9405 36.087 60.1845 36.7051 59.5586C37.3327 58.9395 38.0879 58.4649 38.918 58.168C39.8668 57.8341 40.8673 57.6714 41.873 57.6875C42.689 57.673 43.5017 57.7951 44.2773 58.0488C44.8949 58.247 45.4708 58.5568 45.9766 58.9629C46.3725 59.289 46.7037 59.6865 46.9531 60.1348C47.1499 60.4666 47.2632 60.8413 47.2832 61.2266C47.2837 61.392 47.2491 61.5557 47.1818 61.7069C47.1145 61.858 47.0159 61.9932 46.8926 62.1035C46.7717 62.2212 46.6287 62.3137 46.4718 62.3758C46.3148 62.4378 46.1472 62.4681 45.9785 62.4648C45.7822 62.4648 45.5887 62.4179 45.4141 62.3281C45.2344 62.2354 45.0791 62.1016 44.9609 61.9375C44.7033 61.5207 44.4175 61.122 44.1055 60.7441C43.8443 60.4533 43.524 60.2216 43.166 60.0645C42.6885 59.8649 42.1735 59.771 41.6562 59.7891C41.0765 59.7784 40.5009 59.8895 39.9668 60.1152C39.4757 60.328 39.0405 60.6515 38.6953 61.0605C38.3252 61.5068 38.0501 62.0238 37.8867 62.5801C37.6943 63.2257 37.6001 63.8966 37.6074 64.5703C37.6074 66.1497 37.9701 67.3646 38.6953 68.2148C39.4206 69.0651 40.4316 69.4902 41.7285 69.4902C42.3297 69.4943 42.9284 69.4114 43.5059 69.2441C44.0892 69.0653 44.6533 68.8284 45.1895 68.5371V66.3516H43.0879C42.6905 66.3754 42.2937 66.2967 41.9355 66.123C41.8047 66.0415 41.699 65.9254 41.6301 65.7875C41.5611 65.6496 41.5317 65.4954 41.5449 65.3418C41.5417 65.2018 41.5692 65.0627 41.6255 64.9345C41.6819 64.8062 41.7657 64.6919 41.8711 64.5996C42.1186 64.3925 42.4355 64.2871 42.7578 64.3047H45.8516C46.1755 64.2983 46.499 64.3324 46.8145 64.4063C47.0758 64.4713 47.3036 64.6315 47.4531 64.8555C47.6363 65.1725 47.7207 65.5371 47.6953 65.9023V68.4824ZM53.125 69.9414C53.125 70.4974 52.998 70.9134 52.7441 71.1895C52.6176 71.3259 52.4631 71.4333 52.2912 71.5044C52.1192 71.5756 51.934 71.6087 51.7481 71.6016C51.5648 71.6079 51.3823 71.5739 51.2136 71.502C51.0448 71.4301 50.8939 71.3221 50.7715 71.1855C50.5176 70.9069 50.3906 70.4922 50.3906 69.9414V59.3379C50.3906 58.7891 50.5156 58.375 50.7676 58.0996C50.8903 57.9637 51.0414 57.8563 51.2101 57.7851C51.3788 57.7139 51.5611 57.6806 51.7441 57.6875C51.9297 57.6801 52.1147 57.7128 52.2866 57.7832C52.4585 57.8536 52.6132 57.9602 52.7402 58.0957C52.9941 58.3665 53.1211 58.7806 53.1211 59.3379L53.125 69.9414ZM65.1816 59.7285C64.904 59.9442 64.5554 60.0474 64.2051 60.0176H58.8496V63.4609H63.3418C63.6763 63.4343 64.0087 63.5339 64.2734 63.7402C64.3757 63.8352 64.4561 63.9514 64.5091 64.0805C64.562 64.2097 64.5862 64.3488 64.5801 64.4883C64.5852 64.6288 64.559 64.7687 64.5032 64.8977C64.4475 65.0268 64.3636 65.1418 64.2578 65.2344C63.9925 65.4362 63.6626 65.5341 63.3301 65.5098H58.8379V69.9434C58.8379 70.5059 58.7109 70.9232 58.457 71.1953C58.3286 71.3253 58.1756 71.4286 58.007 71.4991C57.8383 71.5695 57.6574 71.6058 57.4746 71.6058C57.2918 71.6058 57.1109 71.5695 56.9422 71.4991C56.7736 71.4286 56.6206 71.3253 56.4922 71.1953C56.2383 70.9193 56.1113 70.5033 56.1113 69.9473V59.5957C56.0997 59.2673 56.159 58.9402 56.2852 58.6367C56.3953 58.3957 56.5898 58.2033 56.832 58.0957C57.1328 57.9724 57.4564 57.9145 57.7812 57.9258H64.207C64.5573 57.896 64.906 57.9992 65.1836 58.2148C65.284 58.3147 65.3637 58.4334 65.418 58.5641C65.4724 58.6948 65.5004 58.835 65.5004 58.9766C65.5004 59.1181 65.4724 59.2583 65.418 59.389C65.3637 59.5198 65.284 59.6385 65.1836 59.7383L65.1816 59.7285Z" fill="#00C2CF"/>
<path d="M85.8906 78.1738C84.8789 78.1738 84.0586 79.0625 84.0586 80.1582V92.8535C84.0586 94.6113 82.748 96.0273 81.1289 96.0273H18.8711C17.252 96.0273 15.9414 94.6074 15.9414 92.8535V80.1582C15.9414 79.0625 15.1211 78.1738 14.1094 78.1738C13.0977 78.1738 12.2793 79.0625 12.2793 80.1582V94.0469C12.2793 97.334 14.7402 100 17.7734 100H82.2266C85.2578 100 87.7188 97.334 87.7188 94.0469V80.1582C87.7207 79.0625 86.9023 78.1738 85.8906 78.1738Z" fill="#00C2CF"/>
</g>
<defs>
<clipPath id="clip0_216_20">
<rect width="100" height="100" fill="white"/>
</clipPath>
</defs>
</svg>
