<svg width="100" height="100" viewBox="0 0 100 100" fill="none" xmlns="http://www.w3.org/2000/svg">
<g clip-path="url(#clip0_216_11)">
<path d="M87.6953 5.95312V49.207H84.0332V7.14258C84.0332 5.38477 82.7227 3.96875 81.1035 3.96875H30.0254L33.6543 0H82.2012C85.2344 0 87.6953 2.66602 87.6953 5.95312Z" fill="#F68D11"/>
<path d="M15.9141 19.4043V49.207H12.252V23.4121L15.9141 19.4043Z" fill="#F68D11"/>
<path d="M33.6543 0V17.1875C33.6543 20.623 31.1055 23.4082 27.9668 23.4082H12.252L15.9141 19.4043L30.0254 3.97461L33.6543 0Z" fill="#F68D11"/>
<path d="M51.7754 60.3516C51.0829 60.1571 50.3656 60.0656 49.6465 60.0801H47.8516V69.2148H49.916C50.3691 69.2148 50.7246 69.2031 50.9824 69.1777C51.2546 69.1499 51.5223 69.0882 51.7793 68.9941C52.0426 68.9035 52.286 68.7629 52.4961 68.5801C53.4076 67.8105 53.8633 66.4831 53.8633 64.5977C53.8633 63.2695 53.6628 62.2747 53.2617 61.6133C52.8607 60.9518 52.3652 60.5312 51.7754 60.3516Z" fill="#F68D11"/>
<path d="M37.125 59.9609H35.291V64.0742H37.125C37.6688 64.0896 38.2119 64.0238 38.7363 63.8789C39.1282 63.7709 39.4748 63.5394 39.7246 63.2187C39.9644 62.8647 40.0836 62.4428 40.0645 62.0156C40.086 61.4827 39.8981 60.9625 39.541 60.5664C39.1491 60.1628 38.3437 59.9609 37.125 59.9609Z" fill="#F68D11"/>
<path d="M95.7637 53.1738H4.23633C1.89258 53.1738 0 54.9512 0 57.1426V72.2227C0 74.4141 1.89648 76.1914 4.23633 76.1914H95.7637C98.1074 76.1914 100 74.4141 100 72.2227V57.1426C100 54.9512 98.1035 53.1738 95.7637 53.1738ZM41.5605 65.0723C40.7155 65.7767 39.4577 66.1296 37.7871 66.1309H35.291V69.9414C35.291 70.4857 35.1608 70.8984 34.9004 71.1797C34.7782 71.317 34.6275 71.4259 34.4588 71.4988C34.2901 71.5716 34.1075 71.6067 33.9238 71.6016C33.7381 71.6087 33.5531 71.5752 33.3817 71.5033C33.2103 71.4314 33.0567 71.323 32.9316 71.1855C32.6816 70.9069 32.5566 70.498 32.5566 69.959V59.5859C32.5566 58.987 32.694 58.5586 32.9688 58.3008C33.2435 58.043 33.681 57.9128 34.2812 57.9102H37.7793C38.5819 57.8852 39.3842 57.9653 40.166 58.1484C40.6936 58.2906 41.1819 58.5511 41.5938 58.9102C41.9961 59.2673 42.3086 59.7143 42.5059 60.2148C42.7217 60.7672 42.8278 61.3563 42.8184 61.9492C42.8236 63.3242 42.4043 64.3652 41.5605 65.0723ZM56.4043 66.8203C56.2773 67.4502 56.0574 68.0577 55.752 68.623C55.4576 69.1612 55.0761 69.647 54.6231 70.0605C54.2706 70.3797 53.8715 70.6432 53.4394 70.8418C53.0001 71.0418 52.5355 71.1811 52.0586 71.2559C51.5067 71.3399 50.9489 71.3798 50.3906 71.375H46.8477C46.4608 71.399 46.0743 71.3216 45.7266 71.1504C45.4859 71.0126 45.3097 70.785 45.2363 70.5176C45.1513 70.1707 45.1126 69.8141 45.1211 69.457V59.5859C45.1211 59 45.2513 58.5749 45.5117 58.3105C45.7721 58.0462 46.1973 57.916 46.7871 57.9199H50.3398C51.1405 57.906 51.9397 57.9926 52.7188 58.1777C53.386 58.3521 54.0025 58.6821 54.5176 59.1406C55.9173 60.3398 56.6178 62.1628 56.6191 64.6094C56.6267 65.3515 56.5573 66.0925 56.4121 66.8203H56.4043ZM68.0195 59.7285C67.7447 59.9423 67.3998 60.0455 67.0527 60.0176H61.6816V63.4609H66.1738C66.5089 63.4347 66.8418 63.5343 67.1074 63.7402C67.209 63.8358 67.2889 63.952 67.3418 64.081C67.3947 64.2101 67.4193 64.3489 67.4141 64.4883C67.4205 64.6277 67.3959 64.7669 67.3418 64.8956C67.2877 65.0243 67.2057 65.1394 67.1016 65.2324C66.8362 65.4343 66.5063 65.5322 66.1738 65.5078H61.6816V69.9414C61.6816 70.5039 61.5514 70.9212 61.291 71.1934C61.1626 71.3234 61.0096 71.4266 60.841 71.4971C60.6723 71.5676 60.4914 71.6038 60.3086 71.6038C60.1258 71.6038 59.9449 71.5676 59.7762 71.4971C59.6076 71.4266 59.4546 71.3234 59.3262 71.1934C59.0723 70.9173 58.9453 70.5013 58.9453 69.9453V59.5937C58.9333 59.2651 58.9933 58.9378 59.1211 58.6348C59.2299 58.3934 59.4239 58.2008 59.666 58.0938C59.9674 57.9703 60.2917 57.9124 60.6172 57.9238H67.043C67.3946 57.8886 67.7466 57.9885 68.0273 58.2031C68.1282 58.3027 68.2083 58.4213 68.263 58.5521C68.3176 58.6828 68.3458 58.8231 68.3458 58.9648C68.3458 59.1066 68.3176 59.2469 68.263 59.3776C68.2083 59.5084 68.1282 59.627 68.0273 59.7266L68.0195 59.7285Z" fill="#F68D11"/>
<path d="M85.8906 78.1738C84.8789 78.1738 84.0586 79.0625 84.0586 80.1582V92.8535C84.0586 94.6113 82.748 96.0273 81.1289 96.0273H18.8711C17.252 96.0273 15.9414 94.6074 15.9414 92.8535V80.1582C15.9414 79.0625 15.1211 78.1738 14.1094 78.1738C13.0977 78.1738 12.2793 79.0625 12.2793 80.1582V94.0469C12.2793 97.334 14.7402 100 17.7734 100H82.2266C85.2578 100 87.7188 97.334 87.7188 94.0469V80.1582C87.7207 79.0625 86.9023 78.1738 85.8906 78.1738Z" fill="#F68D11"/>
<rect y="51" width="100" height="26" rx="5" fill="#F68D11"/>
<path d="M36.0881 57.4545H39.1278V67.5966C39.1278 68.5341 38.9171 69.3485 38.4957 70.0398C38.0791 70.7311 37.4991 71.2637 36.7557 71.6378C36.0123 72.0118 35.1482 72.1989 34.1634 72.1989C33.2874 72.1989 32.492 72.045 31.777 71.7372C31.0668 71.4247 30.5033 70.9512 30.0866 70.3168C29.67 69.6776 29.464 68.875 29.4688 67.9091H32.5298C32.5393 68.2926 32.6174 68.6217 32.7642 68.8963C32.9157 69.1662 33.1217 69.3745 33.3821 69.5213C33.6473 69.6634 33.9598 69.7344 34.3196 69.7344C34.6984 69.7344 35.018 69.6539 35.2784 69.4929C35.5436 69.3272 35.7448 69.0857 35.8821 68.7685C36.0194 68.4512 36.0881 68.0606 36.0881 67.5966V57.4545ZM41.6705 72V57.4545H47.4091C48.5123 57.4545 49.4522 57.6652 50.2287 58.0866C51.0052 58.5033 51.5971 59.0833 52.0043 59.8267C52.4162 60.5653 52.6222 61.4176 52.6222 62.3835C52.6222 63.3494 52.4138 64.2017 51.9972 64.9403C51.5805 65.679 50.9768 66.2543 50.1861 66.6662C49.4001 67.0781 48.4484 67.2841 47.331 67.2841H43.6733V64.8196H46.8338C47.4257 64.8196 47.9134 64.7178 48.2969 64.5142C48.6851 64.3059 48.974 64.0194 49.1634 63.6548C49.3575 63.2855 49.4545 62.8617 49.4545 62.3835C49.4545 61.9006 49.3575 61.4792 49.1634 61.1193C48.974 60.7547 48.6851 60.473 48.2969 60.2741C47.9086 60.0705 47.4162 59.9688 46.8196 59.9688H44.7457V72H41.6705ZM64.2646 62.1562C64.1651 61.8106 64.0255 61.5052 63.8455 61.2401C63.6656 60.9702 63.4454 60.7429 63.185 60.5582C62.9293 60.3688 62.6358 60.2244 62.3043 60.125C61.9776 60.0256 61.6154 59.9759 61.2177 59.9759C60.4743 59.9759 59.8209 60.1605 59.2575 60.5298C58.6987 60.8991 58.2631 61.4366 57.9506 62.142C57.6381 62.8428 57.4819 63.6998 57.4819 64.7131C57.4819 65.7263 57.6358 66.5881 57.9435 67.2983C58.2513 68.0085 58.6869 68.5507 59.2504 68.9247C59.8138 69.294 60.479 69.4787 61.2461 69.4787C61.9421 69.4787 62.5363 69.3556 63.0288 69.1094C63.5259 68.8584 63.9047 68.5057 64.1651 68.0511C64.4303 67.5966 64.5629 67.0592 64.5629 66.4389L65.1879 66.5312H61.4379V64.2159H67.5245V66.0483C67.5245 67.3267 67.2546 68.4252 66.7148 69.3438C66.1751 70.2576 65.4317 70.9631 64.4847 71.4602C63.5378 71.9527 62.4535 72.1989 61.2319 72.1989C59.8683 72.1989 58.6703 71.8982 57.6381 71.2969C56.6059 70.6908 55.801 69.8314 55.2234 68.7188C54.6504 67.6013 54.364 66.2756 54.364 64.7415C54.364 63.5625 54.5344 62.5114 54.8754 61.5881C55.221 60.66 55.704 59.8741 56.3242 59.2301C56.9445 58.5862 57.6665 58.0961 58.4904 57.7599C59.3143 57.4238 60.2068 57.2557 61.168 57.2557C61.9918 57.2557 62.7589 57.3764 63.4691 57.6179C64.1793 57.8546 64.8091 58.1908 65.3583 58.6264C65.9123 59.062 66.3645 59.5805 66.7148 60.1818C67.0652 60.7784 67.2901 61.4366 67.3896 62.1562H64.2646Z" fill="white"/>
</g>
<defs>
<clipPath id="clip0_216_11">
<rect width="100" height="100" fill="white"/>
</clipPath>
</defs>
</svg>
