<svg width="24" height="24" viewBox="0 0 24 24" fill="none" xmlns="http://www.w3.org/2000/svg">
<rect x="1.44" y="5.75999" width="21.12" height="12.48" rx="6.24" fill="black"/>
<path d="M5.55592 10.436L5.72638 9.42182H10.5048L10.3343 10.436H8.55308L7.75763 15.24H6.54172L7.33717 10.436H5.55592Z" fill="white"/>
<g clip-path="url(#clip0_214_63)">
<path d="M15.36 8.48C14.6638 8.48 13.9833 8.68644 13.4044 9.07322C12.8255 9.46001 12.3744 10.0098 12.1079 10.6529C11.8415 11.2961 11.7718 12.0039 11.9076 12.6867C12.0435 13.3695 12.3787 13.9967 12.871 14.489C13.3633 14.9813 13.9905 15.3165 14.6733 15.4524C15.3561 15.5882 16.0638 15.5185 16.707 15.2521C17.3502 14.9856 17.9 14.5345 18.2868 13.9556C18.6736 13.3767 18.88 12.6962 18.88 12C18.88 11.0664 18.5091 10.1711 17.849 9.51098C17.1889 8.85085 16.2936 8.48 15.36 8.48ZM16.8662 13.0538C16.8968 13.0833 16.9212 13.1186 16.938 13.1576C16.9547 13.1967 16.9635 13.2387 16.9639 13.2811C16.9643 13.3236 16.9562 13.3658 16.9401 13.4051C16.924 13.4444 16.9002 13.4802 16.8702 13.5102C16.8402 13.5402 16.8044 13.564 16.7651 13.5801C16.7258 13.5962 16.6836 13.6043 16.6411 13.6039C16.5987 13.6035 16.5567 13.5947 16.5176 13.5779C16.4786 13.5612 16.4433 13.5368 16.4138 13.5062L15.36 12.4525L14.3062 13.5062C14.2767 13.5368 14.2414 13.5612 14.2024 13.5779C14.1633 13.5947 14.1213 13.6035 14.0788 13.6039C14.0364 13.6043 13.9942 13.5962 13.9549 13.5801C13.9156 13.564 13.8798 13.5402 13.8498 13.5102C13.8197 13.4802 13.796 13.4444 13.7799 13.4051C13.7638 13.3658 13.7557 13.3236 13.7561 13.2811C13.7564 13.2387 13.7653 13.1967 13.782 13.1576C13.7988 13.1186 13.8232 13.0833 13.8538 13.0538L14.9075 12L13.8538 10.9462C13.8232 10.9167 13.7988 10.8814 13.782 10.8424C13.7653 10.8033 13.7564 10.7613 13.7561 10.7188C13.7557 10.6764 13.7638 10.6342 13.7799 10.5949C13.796 10.5556 13.8197 10.5198 13.8498 10.4898C13.8798 10.4597 13.9156 10.436 13.9549 10.4199C13.9942 10.4038 14.0364 10.3957 14.0788 10.3961C14.1213 10.3964 14.1633 10.4053 14.2024 10.422C14.2414 10.4388 14.2767 10.4632 14.3062 10.4938L15.36 11.5475L16.4138 10.4938C16.4433 10.4632 16.4786 10.4388 16.5176 10.422C16.5567 10.4053 16.5987 10.3964 16.6411 10.3961C16.6836 10.3957 16.7258 10.4038 16.7651 10.4199C16.8044 10.436 16.8402 10.4597 16.8702 10.4898C16.9002 10.5198 16.924 10.5556 16.9401 10.5949C16.9562 10.6342 16.9643 10.6764 16.9639 10.7188C16.9635 10.7613 16.9547 10.8033 16.938 10.8424C16.9212 10.8814 16.8968 10.9167 16.8662 10.9462L15.8125 12L16.8662 13.0538Z" fill="#EDEDED"/>
</g>
<defs>
<clipPath id="clip0_214_63">
<rect width="7.68" height="7.68" fill="white" transform="translate(11.52 8.15999)"/>
</clipPath>
</defs>
</svg>
