<svg width="100" height="100" viewBox="0 0 100 100" fill="none" xmlns="http://www.w3.org/2000/svg">
<g clip-path="url(#clip0_216_43)">
<path d="M87.6953 5.95313V49.207H84.0332V7.14258C84.0332 5.38477 82.7227 3.96875 81.1035 3.96875H30.0254L33.6543 0H82.2012C85.2344 0 87.6953 2.66602 87.6953 5.95313Z" fill="#009378"/>
<path d="M15.9141 19.4043V49.207H12.252V23.4121L15.9141 19.4043Z" fill="#009378"/>
<path d="M33.6543 0V17.1875C33.6543 20.623 31.1055 23.4082 27.9668 23.4082H12.252L15.9141 19.4043L30.0254 3.97461L33.6543 0Z" fill="#009378"/>
<path d="M35.1758 59.9609H33.3398V64.0742H35.1758C35.7196 64.0895 36.2627 64.0237 36.7871 63.8789C37.1782 63.7704 37.524 63.539 37.7734 63.2187C38.014 62.8651 38.1333 62.4429 38.1133 62.0156C38.1349 61.4827 37.947 60.9625 37.5898 60.5664C37.1979 60.1628 36.3932 59.9609 35.1758 59.9609Z" fill="#009378"/>
<path d="M95.7637 53.1738H4.23633C1.89258 53.1738 0 54.9512 0 57.1426V72.2227C0 74.4141 1.89648 76.1914 4.23633 76.1914H95.7637C98.1074 76.1914 100 74.4141 100 72.2227V57.1426C100 54.9512 98.1035 53.1738 95.7637 53.1738ZM39.6094 65.0723C38.763 65.7767 37.5052 66.1296 35.8359 66.1309H33.3398V69.9414C33.3398 70.4857 33.2096 70.8984 32.9492 71.1797C32.8218 71.3111 32.6692 71.4156 32.5006 71.4869C32.332 71.5583 32.1508 71.5951 31.9678 71.5951C31.7847 71.5951 31.6035 71.5583 31.4349 71.4869C31.2663 71.4156 31.1138 71.3111 30.9863 71.1797C30.735 70.901 30.6094 70.4922 30.6094 69.9531V59.5859C30.6094 58.987 30.7467 58.5586 31.0215 58.3008C31.2962 58.043 31.7344 57.9128 32.3359 57.9102H35.832C36.6346 57.8851 37.437 57.9652 38.2188 58.1484C38.7465 58.2902 39.2348 58.5508 39.6465 58.9102C40.0489 59.2677 40.3619 59.7145 40.5605 60.2148C40.7748 60.7676 40.8802 61.3565 40.8711 61.9492C40.8737 63.3242 40.4531 64.3652 39.6094 65.0723ZM54.4531 69.8301C54.4531 71.0124 53.9635 71.6029 52.9844 71.6016C52.7599 71.6046 52.5366 71.5689 52.3242 71.4961C52.121 71.421 51.934 71.3076 51.7734 71.1621C51.5949 71.0016 51.435 70.8214 51.2969 70.625C51.1504 70.4199 51.002 70.2109 50.8555 69.9961L45.7422 62.1562V70.041C45.7422 70.5618 45.623 70.9525 45.3848 71.2129C45.266 71.3382 45.1229 71.4381 44.9642 71.5063C44.8055 71.5745 44.6346 71.6097 44.4619 71.6097C44.2892 71.6097 44.1183 71.5745 43.9596 71.5063C43.801 71.4381 43.6579 71.3382 43.5391 71.2129C43.2855 70.8808 43.1618 70.4676 43.1914 70.0508V59.6602C43.1775 59.3085 43.2272 58.9571 43.3379 58.623C43.459 58.3428 43.6636 58.1068 43.9238 57.9473C44.1824 57.7771 44.4854 57.6868 44.7949 57.6875C45.0107 57.6813 45.2253 57.722 45.4238 57.8066C45.596 57.8828 45.7519 57.9916 45.8828 58.127C46.0355 58.2869 46.171 58.4623 46.2871 58.6504C46.4258 58.8652 46.5684 59.0879 46.7148 59.3203L51.9531 67.252V59.2441C51.9531 58.7246 52.0664 58.334 52.2891 58.0723C52.4006 57.9432 52.5398 57.841 52.6964 57.7733C52.853 57.7057 53.0229 57.6743 53.1934 57.6816C53.3673 57.6737 53.5408 57.7047 53.7013 57.7723C53.8618 57.8398 54.0052 57.9423 54.1211 58.0723C54.3451 58.3327 54.4577 58.7233 54.459 59.2441L54.4531 69.8301ZM69.7285 68.4824C69.7374 68.7595 69.7032 69.0362 69.627 69.3027C69.5541 69.517 69.4261 69.7083 69.2559 69.8574C69.0449 70.0444 68.8121 70.2051 68.5625 70.3359C67.8216 70.7474 67.035 71.0706 66.2188 71.2988C65.4154 71.5078 64.5879 71.6095 63.7578 71.6016C62.7948 71.614 61.8374 71.4525 60.9316 71.125C60.1133 70.8283 59.3704 70.3548 58.7559 69.7383C58.1426 69.1117 57.6716 68.3602 57.375 67.5352C57.042 66.6084 56.8786 65.6292 56.8926 64.6445C56.8812 63.6669 57.0398 62.6948 57.3613 61.7715C57.6484 60.9398 58.119 60.1835 58.7383 59.5586C59.3619 58.9412 60.1123 58.4667 60.9375 58.168C61.887 57.8343 62.8882 57.6716 63.8945 57.6875C64.7105 57.6731 65.5231 57.7952 66.2988 58.0488C66.9158 58.247 67.4911 58.5568 67.9961 58.9629C68.3927 59.2884 68.7241 59.686 68.9727 60.1348C69.1703 60.4662 69.2837 60.8411 69.3027 61.2266C69.3045 61.3913 69.2714 61.5545 69.2058 61.7056C69.1402 61.8568 69.0434 61.9923 68.9219 62.1035C68.8013 62.2211 68.6586 62.3135 68.502 62.3755C68.3455 62.4376 68.1781 62.4679 68.0098 62.4648C67.8134 62.4653 67.6198 62.4184 67.4453 62.3281C67.2651 62.2354 67.1092 62.1016 66.9902 61.9375C66.7338 61.5204 66.4486 61.1216 66.1367 60.7441C65.8748 60.4532 65.5538 60.2215 65.1953 60.0645C64.7178 59.8649 64.2028 59.771 63.6855 59.7891C63.1058 59.7784 62.5302 59.8895 61.9961 60.1152C61.5056 60.329 61.0706 60.6524 60.7246 61.0605C60.3544 61.5064 60.0799 62.0236 59.918 62.5801C59.7246 63.2255 59.6304 63.8966 59.6387 64.5703C59.6387 66.1497 60.0007 67.3646 60.7246 68.2148C61.4486 69.0651 62.4603 69.4902 63.7598 69.4902C64.3603 69.4943 64.9583 69.4114 65.5352 69.2441C66.1192 69.0653 66.6838 68.8284 67.2207 68.5371V66.3516H65.1191C64.7218 66.3754 64.325 66.2967 63.9668 66.123C63.836 66.0415 63.7303 65.9254 63.6613 65.7875C63.5924 65.6496 63.5629 65.4954 63.5762 65.3418C63.5729 65.2018 63.6004 65.0627 63.6568 64.9345C63.7132 64.8062 63.797 64.6919 63.9023 64.5996C64.1489 64.3921 64.4654 64.2866 64.7871 64.3047H67.8809C68.2054 64.2983 68.5296 64.3324 68.8457 64.4063C69.1063 64.4719 69.3332 64.632 69.4824 64.8555C69.6663 65.1723 69.7513 65.5369 69.7266 65.9023L69.7285 68.4824Z" fill="#009378"/>
<path d="M85.8906 78.1738C84.8789 78.1738 84.0586 79.0625 84.0586 80.1582V92.8535C84.0586 94.6113 82.748 96.0273 81.1289 96.0273H18.8711C17.252 96.0273 15.9414 94.6074 15.9414 92.8535V80.1582C15.9414 79.0625 15.1211 78.1738 14.1094 78.1738C13.0977 78.1738 12.2793 79.0625 12.2793 80.1582V94.0469C12.2793 97.334 14.7402 100 17.7734 100H82.2266C85.2578 100 87.7188 97.334 87.7188 94.0469V80.1582C87.7207 79.0625 86.9023 78.1738 85.8906 78.1738Z" fill="#009378"/>
</g>
<defs>
<clipPath id="clip0_216_43">
<rect width="100" height="100" fill="white"/>
</clipPath>
</defs>
</svg>
