<svg width="100" height="100" viewBox="0 0 100 100" fill="none" xmlns="http://www.w3.org/2000/svg">
<g clip-path="url(#clip0_216_27)">
<path d="M87.6953 5.95312V49.207H84.0332V7.14258C84.0332 5.38477 82.7227 3.96875 81.1035 3.96875H30.0254L33.6543 0H82.2012C85.2344 0 87.6953 2.66602 87.6953 5.95312Z" fill="#F68D11"/>
<path d="M15.9141 19.4043V49.207H12.252V23.4121L15.9141 19.4043Z" fill="#F68D11"/>
<path d="M33.6543 0V17.1875C33.6543 20.623 31.1055 23.4082 27.9668 23.4082H12.252L15.9141 19.4043L30.0254 3.97461L33.6543 0Z" fill="#F68D11"/>
<path d="M37.6172 59.9609H35.7812V64.0742H37.6172C38.161 64.0895 38.7041 64.0237 39.2285 63.8789C39.6199 63.7709 39.9658 63.5394 40.2148 63.2187C40.4554 62.8651 40.5747 62.4429 40.5547 62.0156C40.5771 61.4826 40.3891 60.9621 40.0313 60.5664C39.6393 60.1628 38.8346 59.9609 37.6172 59.9609Z" fill="#F68D11"/>
<path d="M50.1562 59.9609H48.3203V64.0742H50.1562C50.7001 64.0895 51.2431 64.0237 51.7676 63.8789C52.1589 63.7709 52.5049 63.5394 52.7539 63.2187C52.9945 62.8651 53.1138 62.4429 53.0938 62.0156C53.1162 61.4826 52.9282 60.9621 52.5703 60.5664C52.1784 60.1628 51.3737 59.9609 50.1562 59.9609Z" fill="#F68D11"/>
<path d="M95.7637 53.1738H4.23633C1.89258 53.1738 0 54.9512 0 57.1426V72.2227C0 74.4141 1.89648 76.1914 4.23633 76.1914H95.7637C98.1074 76.1914 100 74.4141 100 72.2227V57.1426C100 54.9512 98.1035 53.1738 95.7637 53.1738ZM42.0527 65.0723C41.209 65.7767 39.9512 66.1296 38.2793 66.1309H35.7812V69.9414C35.7812 70.4857 35.651 70.8984 35.3906 71.1797C35.2631 71.3114 35.1105 71.4161 34.9417 71.4877C34.7729 71.5592 34.5915 71.5961 34.4082 71.5961C34.2249 71.5961 34.0435 71.5592 33.8747 71.4877C33.7059 71.4161 33.5533 71.3114 33.4258 71.1797C33.1745 70.901 33.0488 70.4922 33.0488 69.9531V59.5859C33.0488 58.987 33.1868 58.5586 33.4629 58.3008C33.7389 58.043 34.1764 57.9128 34.7754 57.9102H38.2812C39.0838 57.8851 39.8862 57.9652 40.668 58.1484C41.1957 58.2902 41.684 58.5508 42.0957 58.9102C42.4981 59.2677 42.8111 59.7145 43.0098 60.2148C43.2247 60.7674 43.3308 61.3564 43.3223 61.9492C43.3197 63.3242 42.8958 64.3652 42.0508 65.0723H42.0527ZM54.5918 65.0723C53.748 65.7767 52.4902 66.1296 50.8184 66.1309H48.3203V69.9414C48.3203 70.4857 48.1901 70.8984 47.9297 71.1797C47.8022 71.3114 47.6495 71.4161 47.4808 71.4877C47.312 71.5592 47.1306 71.5961 46.9473 71.5961C46.764 71.5961 46.5825 71.5592 46.4138 71.4877C46.245 71.4161 46.0923 71.3114 45.9648 71.1797C45.7122 70.901 45.5866 70.4922 45.5879 69.9531V59.5859C45.5879 58.987 45.7259 58.5586 46.002 58.3008C46.278 58.043 46.7155 57.9128 47.3145 57.9102H50.8105C51.6131 57.8851 52.4155 57.9652 53.1973 58.1484C53.725 58.2902 54.2133 58.5508 54.625 58.9102C55.0274 59.2677 55.3404 59.7145 55.5391 60.2148C55.7539 60.7674 55.8601 61.3564 55.8516 61.9492C55.8568 63.3242 55.4362 64.3652 54.5898 65.0723H54.5918ZM67.9199 59.8574C67.6199 60.0835 67.2477 60.1925 66.873 60.1641H63.8984V69.9414C63.8984 70.5039 63.7715 70.918 63.5215 71.1934C63.398 71.3281 63.2467 71.4343 63.0781 71.5048C62.9095 71.5753 62.7276 71.6083 62.5449 71.6016C62.3602 71.6081 62.1763 71.5746 62.0057 71.5035C61.8352 71.4324 61.682 71.3253 61.5566 71.1894C61.3027 70.9134 61.1758 70.4974 61.1758 69.9414V60.1562H58.2031C57.737 60.1562 57.3913 60.054 57.166 59.8496C57.0536 59.7471 56.965 59.6212 56.9063 59.4809C56.8476 59.3406 56.8203 59.1891 56.8262 59.0371C56.8188 58.8816 56.8468 58.7265 56.908 58.5834C56.9692 58.4403 57.0621 58.313 57.1797 58.2109C57.4735 57.9906 57.8367 57.8831 58.2031 57.9082H66.8672C67.3379 57.9082 67.6895 58.0117 67.918 58.2207C68.0318 58.3232 68.1218 58.4494 68.1815 58.5905C68.2412 58.7316 68.2693 58.884 68.2637 59.0371C68.2708 59.191 68.2435 59.3445 68.1837 59.4864C68.1239 59.6283 68.0331 59.7551 67.918 59.8574H67.9199Z" fill="#F68D11"/>
<path d="M85.8906 78.1738C84.8789 78.1738 84.0586 79.0625 84.0586 80.1582V92.8535C84.0586 94.6113 82.748 96.0273 81.1289 96.0273H18.8711C17.252 96.0273 15.9414 94.6074 15.9414 92.8535V80.1582C15.9414 79.0625 15.1211 78.1738 14.1094 78.1738C13.0977 78.1738 12.2793 79.0625 12.2793 80.1582V94.0469C12.2793 97.334 14.7402 100 17.7734 100H82.2266C85.2578 100 87.7188 97.334 87.7188 94.0469V80.1582C87.7207 79.0625 86.9023 78.1738 85.8906 78.1738Z" fill="#F68D11"/>
</g>
<defs>
<clipPath id="clip0_216_27">
<rect width="100" height="100" fill="white"/>
</clipPath>
</defs>
</svg>
