<svg width="100" height="100" viewBox="0 0 100 100" fill="none" xmlns="http://www.w3.org/2000/svg">
<g clip-path="url(#clip0_216_2)">
<path d="M87.6953 5.95313V49.207H84.0332V7.14258C84.0332 5.38477 82.7227 3.96875 81.1035 3.96875H30.0254L33.6543 0H82.2012C85.2344 0 87.6953 2.66602 87.6953 5.95313Z" fill="#AD0049"/>
<path d="M15.9141 19.4043V49.207H12.252V23.4121L15.9141 19.4043Z" fill="#AD0049"/>
<path d="M33.6543 0V17.1875C33.6543 20.623 31.1055 23.4082 27.9668 23.4082H12.252L15.9141 19.4043L30.0254 3.97461L33.6543 0Z" fill="#AD0049"/>
<path d="M44.4785 59.9609H42.6426V64.0742H44.4785C45.0223 64.0895 45.5654 64.0237 46.0898 63.8789C46.4812 63.7709 46.8272 63.5394 47.0762 63.2187C47.3168 62.8651 47.436 62.4429 47.416 62.0156C47.4384 61.4826 47.2504 60.9621 46.8926 60.5664C46.502 60.1563 45.7031 59.9609 44.4785 59.9609Z" fill="#AD0049"/>
<path d="M31.9395 59.9609H30.1035V64.0742H31.9395C32.4833 64.0895 33.0263 64.0237 33.5508 63.8789C33.9421 63.7709 34.2881 63.5394 34.5371 63.2187C34.7777 62.8651 34.897 62.4429 34.877 62.0156C34.8994 61.4826 34.7114 60.9621 34.3535 60.5664C33.9629 60.1628 33.1582 59.9609 31.9395 59.9609Z" fill="#AD0049"/>
<path d="M95.7637 53.1738H4.23633C1.89258 53.1738 0 54.9512 0 57.1426V72.2227C0 74.4141 1.89648 76.1914 4.23633 76.1914H95.7637C98.1074 76.1914 100 74.4141 100 72.2227V57.1426C100 54.9512 98.1035 53.1738 95.7637 53.1738ZM36.373 65.0723C35.5293 65.7767 34.2721 66.1296 32.6016 66.1309H30.1035V69.9414C30.1035 70.4857 29.9733 70.8984 29.7129 71.1797C29.5854 71.3114 29.4327 71.4161 29.264 71.4877C29.0952 71.5592 28.9138 71.5961 28.7305 71.5961C28.5472 71.5961 28.3657 71.5592 28.197 71.4877C28.0282 71.4161 27.8755 71.3114 27.748 71.1797C27.4967 70.901 27.3711 70.4922 27.3711 69.9531V59.5859C27.3711 58.987 27.5091 58.5586 27.7852 58.3008C28.0612 58.043 28.4987 57.9128 29.0977 57.9102H32.5957C33.3976 57.8852 34.1993 57.9653 34.9805 58.1484C35.5082 58.2902 35.9965 58.5508 36.4082 58.9102C36.8106 59.2677 37.1236 59.7145 37.3223 60.2148C37.5372 60.7674 37.6433 61.3564 37.6348 61.9492C37.6387 63.3242 37.2181 64.3652 36.373 65.0723ZM48.9121 65.0723C48.0684 65.7767 46.8105 66.1296 45.1387 66.1309H42.6426V69.9414C42.6426 70.4857 42.5124 70.8984 42.252 71.1797C42.1245 71.3114 41.9718 71.4161 41.803 71.4877C41.6343 71.5592 41.4528 71.5961 41.2695 71.5961C41.0862 71.5961 40.9048 71.5592 40.736 71.4877C40.5673 71.4161 40.4146 71.3114 40.2871 71.1797C40.0345 70.901 39.9089 70.4922 39.9102 69.9531V59.5859C39.9102 58.987 40.0482 58.5586 40.3242 58.3008C40.6003 58.043 41.0378 57.9128 41.6367 57.9102H45.1328C45.9354 57.8851 46.7378 57.9652 47.5195 58.1484C48.0473 58.2902 48.5356 58.5508 48.9473 58.9102C49.3496 59.2677 49.6627 59.7145 49.8613 60.2148C50.0762 60.7674 50.1823 61.3564 50.1738 61.9492C50.1777 63.3242 49.7572 64.3652 48.9121 65.0723ZM62.2402 59.8574C61.9403 60.0839 61.568 60.1929 61.1934 60.1641H58.2207V69.9414C58.2207 70.5039 58.0938 70.918 57.8438 71.1934C57.7204 71.3283 57.5691 71.4347 57.4005 71.5052C57.2318 71.5757 57.0499 71.6086 56.8672 71.6016C56.6828 71.6081 56.4992 71.5746 56.3289 71.5035C56.1587 71.4323 56.0058 71.3252 55.8809 71.1895C55.6204 70.9134 55.4935 70.4974 55.5 69.9414V60.1562H52.5391C52.0742 60.1562 51.7285 60.054 51.502 59.8496C51.3896 59.7471 51.3009 59.6212 51.2422 59.4809C51.1836 59.3406 51.1562 59.1891 51.1621 59.0371C51.1547 58.8816 51.1827 58.7265 51.2439 58.5834C51.3052 58.4403 51.3981 58.313 51.5156 58.2109C51.8094 57.9906 52.1726 57.8831 52.5391 57.9082H61.2031C61.6758 57.9082 62.0254 58.0117 62.2559 58.2207C62.369 58.3236 62.4584 58.45 62.5178 58.591C62.5772 58.732 62.6051 58.8842 62.5996 59.0371C62.6051 59.192 62.5756 59.3462 62.5134 59.4882C62.4512 59.6302 62.3578 59.7564 62.2402 59.8574ZM73.541 71.0234C73.4348 71.2019 73.2822 71.3484 73.0996 71.4473C72.902 71.5524 72.6809 71.6055 72.457 71.6016C72.229 71.6091 72.0033 71.5537 71.8047 71.4414C71.6358 71.3426 71.4894 71.2095 71.375 71.0508C71.2643 70.8906 71.0592 70.5814 70.7598 70.123L68.3906 66.3965L65.875 70.2324C65.6797 70.5391 65.541 70.7539 65.459 70.875C65.3703 71.0034 65.2703 71.1237 65.1602 71.2344C65.0408 71.3515 64.9003 71.4449 64.7461 71.5098C64.5683 71.5797 64.3785 71.6135 64.1875 71.6094C64.031 71.6194 63.8743 71.5953 63.728 71.5389C63.5817 71.4825 63.4495 71.395 63.3403 71.2825C63.2311 71.1699 63.1477 71.0351 63.0956 70.8872C63.0436 70.7393 63.0243 70.5819 63.0391 70.4258C63.0391 69.9727 63.2624 69.4193 63.709 68.7656L66.7207 64.3672L64.1816 60.4609C63.9788 60.1491 63.7993 59.8227 63.6445 59.4844C63.5316 59.2391 63.4705 58.9731 63.4648 58.7031C63.4681 58.5695 63.5005 58.4381 63.5599 58.3184C63.6193 58.1986 63.7042 58.0933 63.8086 58.0098C64.0395 57.8047 64.3397 57.6951 64.6484 57.7031C64.8113 57.694 64.9744 57.719 65.1271 57.7765C65.2797 57.834 65.4188 57.9228 65.5352 58.0371C65.8637 58.4251 66.1572 58.8414 66.4121 59.2812L68.4316 62.5488L70.5801 59.2812L71.0352 58.5742C71.1426 58.4028 71.2634 58.2402 71.3965 58.0879C71.5051 57.9653 71.6381 57.8668 71.7871 57.7988C71.9451 57.732 72.1156 57.6994 72.2871 57.7031C72.5966 57.6903 72.8985 57.8006 73.127 58.0098C73.2298 58.1016 73.312 58.2142 73.3683 58.3401C73.4245 58.466 73.4534 58.6024 73.4531 58.7402C73.4531 59.1504 73.2174 59.707 72.7461 60.4102L70.1172 64.3594L72.9629 68.75C73.1732 69.055 73.36 69.3756 73.5215 69.709C73.6317 69.9336 73.6917 70.1795 73.6973 70.4297C73.7005 70.6382 73.6465 70.8436 73.541 71.0234Z" fill="#AD0049"/>
<path d="M85.8906 78.1738C84.8789 78.1738 84.0586 79.0625 84.0586 80.1582V92.8535C84.0586 94.6113 82.748 96.0273 81.1289 96.0273H18.8711C17.252 96.0273 15.9414 94.6074 15.9414 92.8535V80.1582C15.9414 79.0625 15.1211 78.1738 14.1094 78.1738C13.0977 78.1738 12.2793 79.0625 12.2793 80.1582V94.0469C12.2793 97.334 14.7402 100 17.7734 100H82.2266C85.2578 100 87.7188 97.334 87.7188 94.0469V80.1582C87.7207 79.0625 86.9023 78.1738 85.8906 78.1738Z" fill="#AD0049"/>
</g>
<defs>
<clipPath id="clip0_216_2">
<rect width="100" height="100" fill="white"/>
</clipPath>
</defs>
</svg>
