<svg width="30" height="30" viewBox="0 0 30 30" fill="none" xmlns="http://www.w3.org/2000/svg">
<g clip-path="url(#clip0_235_9)">
<path d="M15 30C12.0333 30 9.13319 29.1203 6.66645 27.472C4.19972 25.8238 2.27713 23.4811 1.14181 20.7403C0.00649929 17.9994 -0.290551 14.9834 0.288228 12.0737C0.867006 9.16394 2.29562 6.49119 4.39341 4.39341C6.49119 2.29562 9.16394 0.867006 12.0737 0.288228C14.9834 -0.290551 17.9994 0.00649929 20.7403 1.14181C23.4811 2.27713 25.8238 4.19972 27.472 6.66645C29.1203 9.13319 30 12.0333 30 15C30 18.9783 28.4197 22.7936 25.6066 25.6066C22.7936 28.4197 18.9783 30 15 30ZM15 2.3077C12.4897 2.3077 10.0358 3.05209 7.94854 4.44674C5.8613 5.84139 4.23449 7.82366 3.27384 10.1429C2.31319 12.4621 2.06184 15.0141 2.55158 17.4762C3.04131 19.9382 4.25014 22.1998 6.02519 23.9748C7.80024 25.7499 10.0618 26.9587 12.5239 27.4484C14.9859 27.9382 17.5379 27.6868 19.8571 26.7262C22.1764 25.7655 24.1586 24.1387 25.5533 22.0515C26.9479 19.9642 27.6923 17.5103 27.6923 15C27.6923 11.6338 26.3551 8.40546 23.9748 6.02519C21.5946 3.64492 18.3662 2.3077 15 2.3077Z" fill="#156213"/>
</g>
<defs>
<clipPath id="clip0_235_9">
<rect width="30" height="30" fill="white"/>
</clipPath>
</defs>
</svg>
