<svg width="30" height="30" viewBox="0 0 30 30" fill="none" xmlns="http://www.w3.org/2000/svg">
<g clip-path="url(#clip0_235_5)">
<path d="M15 30C12.0333 30 9.13319 29.1203 6.66645 27.4721C4.19972 25.8238 2.27713 23.4811 1.14181 20.7403C0.00649927 17.9994 -0.290551 14.9834 0.288228 12.0737C0.867006 9.16394 2.29562 6.49119 4.39341 4.39341C6.49119 2.29562 9.16394 0.867006 12.0737 0.288228C14.9834 -0.290551 17.9994 0.00649927 20.7403 1.14181C23.4811 2.27713 25.8238 4.19972 27.4721 6.66645C29.1203 9.13319 30 12.0333 30 15C30 18.9783 28.4197 22.7936 25.6066 25.6066C22.7936 28.4197 18.9783 30 15 30ZM15 2.3077C12.4897 2.3077 10.0358 3.05209 7.94854 4.44674C5.8613 5.84139 4.23449 7.82366 3.27384 10.1429C2.31319 12.4621 2.06184 15.0141 2.55158 17.4762C3.04131 19.9382 4.25014 22.1998 6.02519 23.9748C7.80024 25.7499 10.0618 26.9587 12.5239 27.4484C14.9859 27.9382 17.5379 27.6868 19.8571 26.7262C22.1764 25.7655 24.1586 24.1387 25.5533 22.0515C26.9479 19.9642 27.6923 17.5103 27.6923 15C27.6923 11.6338 26.3551 8.40546 23.9748 6.02519C21.5946 3.64492 18.3662 2.3077 15 2.3077Z" fill="#29BD25"/>
<path d="M13.2692 21.6923C13.1175 21.6909 12.9676 21.6596 12.828 21.6002C12.6885 21.5408 12.562 21.4545 12.4558 21.3462L7.14808 16.0442C6.9598 15.8228 6.86201 15.5386 6.87425 15.2482C6.88648 14.9578 7.00784 14.6828 7.21408 14.478C7.42031 14.2732 7.69622 14.1538 7.98667 14.1436C8.27712 14.1334 8.56071 14.2333 8.78077 14.4231L14.0827 19.725C14.2431 19.8864 14.3522 20.0915 14.3963 20.3147C14.4404 20.5379 14.4176 20.7691 14.3307 20.9794C14.2437 21.1896 14.0966 21.3695 13.9077 21.4963C13.7189 21.6232 13.4967 21.6914 13.2692 21.6923Z" fill="#29BD25"/>
<path d="M13.2692 21.6923C13.0405 21.6925 12.817 21.6247 12.6269 21.4976C12.4368 21.3704 12.2887 21.1897 12.2016 20.9782C12.1144 20.7668 12.092 20.5343 12.1373 20.3101C12.1825 20.0859 12.2934 19.8803 12.4558 19.7192L21.2192 10.9615C21.4357 10.745 21.7294 10.6234 22.0356 10.6234C22.3418 10.6234 22.6354 10.745 22.8519 10.9615C23.0684 11.178 23.1901 11.4717 23.1901 11.7779C23.1901 12.0841 23.0684 12.3777 22.8519 12.5942L14.0827 21.3461C13.9765 21.4545 13.85 21.5408 13.7104 21.6002C13.5708 21.6596 13.4209 21.6909 13.2692 21.6923Z" fill="#29BD25"/>
</g>
<defs>
<clipPath id="clip0_235_5">
<rect width="30" height="30" fill="white"/>
</clipPath>
</defs>
</svg>
