<svg width="24" height="24" viewBox="0 0 24 24" fill="none" xmlns="http://www.w3.org/2000/svg">
<g clip-path="url(#clip0_228_9)">
<path d="M12 24C9.62663 24 7.30655 23.2962 5.33316 21.9776C3.35977 20.6591 1.8217 18.7849 0.913451 16.5922C0.00519941 14.3995 -0.232441 11.9867 0.230582 9.65892C0.693605 7.33115 1.83649 5.19295 3.51472 3.51472C5.19295 1.83649 7.33115 0.693605 9.65892 0.230582C11.9867 -0.232441 14.3995 0.00519941 16.5922 0.913451C18.7849 1.8217 20.6591 3.35977 21.9776 5.33316C23.2962 7.30655 24 9.62663 24 12C24 15.1826 22.7357 18.2349 20.4853 20.4853C18.2349 22.7357 15.1826 24 12 24ZM12 1.84616C9.99176 1.84616 8.02862 2.44167 6.35883 3.55739C4.68904 4.67311 3.3876 6.25892 2.61907 8.1143C1.85055 9.96967 1.64947 12.0113 2.04126 13.9809C2.43305 15.9506 3.40011 17.7598 4.82015 19.1799C6.24019 20.5999 8.04944 21.567 10.0191 21.9587C11.9887 22.3505 14.0303 22.1495 15.8857 21.3809C17.7411 20.6124 19.3269 19.311 20.4426 17.6412C21.5583 15.9714 22.1539 14.0082 22.1539 12C22.1539 9.30704 21.0841 6.72437 19.1799 4.82015C17.2756 2.91594 14.693 1.84616 12 1.84616Z" fill="white"/>
<path d="M10.6154 17.3539C10.494 17.3527 10.3741 17.3277 10.2624 17.2802C10.1508 17.2327 10.0496 17.1636 9.96462 17.0769L5.71847 12.8354C5.56785 12.6583 5.48961 12.4308 5.4994 12.1985C5.50919 11.9663 5.60628 11.7462 5.77126 11.5824C5.93625 11.4186 6.15698 11.323 6.38934 11.3149C6.6217 11.3068 6.84857 11.3866 7.02462 11.5385L11.2662 15.78C11.3945 15.9091 11.4818 16.0732 11.5171 16.2518C11.5524 16.4303 11.5341 16.6153 11.4645 16.7835C11.395 16.9517 11.2773 17.0956 11.1262 17.1971C10.9751 17.2985 10.7974 17.3531 10.6154 17.3539Z" fill="white"/>
<path d="M10.6154 17.3538C10.4324 17.354 10.2536 17.2998 10.1015 17.1981C9.94941 17.0964 9.83099 16.9518 9.76126 16.7826C9.69152 16.6135 9.67362 16.4274 9.70983 16.2481C9.74604 16.0688 9.83472 15.9042 9.96462 15.7754L16.9754 8.76923C17.1486 8.59603 17.3835 8.49872 17.6285 8.49872C17.8734 8.49872 18.1083 8.59603 18.2815 8.76923C18.4547 8.94244 18.5521 9.17736 18.5521 9.42231C18.5521 9.66726 18.4547 9.90218 18.2815 10.0754L11.2662 17.0769C11.1812 17.1636 11.08 17.2327 10.9683 17.2802C10.8567 17.3277 10.7367 17.3527 10.6154 17.3538Z" fill="white"/>
</g>
<defs>
<clipPath id="clip0_228_9">
<rect width="24" height="24" fill="white"/>
</clipPath>
</defs>
</svg>
