<svg width="100" height="100" viewBox="0 0 100 100" fill="none" xmlns="http://www.w3.org/2000/svg">
<g clip-path="url(#clip0_216_36)">
<path d="M87.6953 5.95312V49.207H84.0332V7.14258C84.0332 5.38477 82.7227 3.96875 81.1035 3.96875H30.0254L33.6543 0H82.2012C85.2344 0 87.6953 2.66602 87.6953 5.95312Z" fill="#C20000"/>
<path d="M15.9141 19.4043V49.207H12.252V23.4121L15.9141 19.4043Z" fill="#C20000"/>
<path d="M33.6543 0V17.1875C33.6543 20.623 31.1055 23.4082 27.9668 23.4082H12.252L15.9141 19.4043L30.0254 3.97461L33.6543 0Z" fill="#C20000"/>
<path d="M95.7637 53.1738H4.23633C1.89258 53.1738 0 54.9512 0 57.1426V72.2227C0 74.4141 1.89648 76.1914 4.23633 76.1914H95.7637C98.1074 76.1914 100 74.4141 100 72.2227V57.1426C100 54.9512 98.1035 53.1738 95.7637 53.1738ZM41.0156 69.5312C40.5642 70.2078 39.9246 70.7373 39.1758 71.0547C38.2685 71.4417 37.2888 71.6296 36.3027 71.6055C34.9746 71.6055 33.8796 71.3548 33.0176 70.8535C32.4115 70.4983 31.8998 70.0026 31.5254 69.4082C31.1695 68.8894 30.9702 68.2792 30.9512 67.6504C30.9496 67.4905 30.9802 67.3318 31.0411 67.184C31.1021 67.0361 31.1923 66.902 31.3062 66.7898C31.4201 66.6775 31.5555 66.5893 31.7042 66.5305C31.8529 66.4716 32.012 66.4433 32.1719 66.4473C32.4419 66.4404 32.704 66.5392 32.9023 66.7227C33.1312 66.9532 33.3054 67.2322 33.4121 67.5391C33.5556 67.9171 33.7417 68.2775 33.9668 68.6133C34.1833 68.9168 34.4719 69.1618 34.8066 69.3262C35.2528 69.5297 35.7405 69.6254 36.2305 69.6055C37.0365 69.6055 37.6927 69.4173 38.1992 69.041C38.4313 68.8861 38.6217 68.6764 38.7535 68.4305C38.8853 68.1845 38.9546 67.9099 38.9551 67.6309C38.9635 67.4314 38.9317 67.2323 38.8615 67.0454C38.7914 66.8585 38.6844 66.6877 38.5469 66.543C38.2507 66.2502 37.8892 66.032 37.4922 65.9062C37.0612 65.7604 36.4844 65.6042 35.7617 65.4375C34.9254 65.2572 34.1094 64.9929 33.3262 64.6484C32.7108 64.375 32.1761 63.9479 31.7734 63.4082C31.3771 62.8359 31.1764 62.1508 31.2012 61.4551C31.1898 60.7501 31.4018 60.0596 31.8066 59.4824C32.2499 58.8776 32.8612 58.4164 33.5645 58.1563C34.4255 57.8304 35.3413 57.6733 36.2617 57.6934C36.9898 57.6779 37.7155 57.7815 38.4102 58C38.9573 58.1748 39.4663 58.4519 39.9102 58.8164C40.271 59.11 40.5681 59.4742 40.7832 59.8867C40.9581 60.2245 41.0524 60.5982 41.0586 60.9785C41.0582 61.304 40.9347 61.6173 40.7129 61.8555C40.6079 61.9802 40.4765 62.0799 40.3282 62.1475C40.1799 62.215 40.0184 62.2487 39.8555 62.2461C39.7274 62.2557 39.5986 62.2399 39.4767 62.1997C39.3547 62.1595 39.2418 62.0956 39.1445 62.0117C38.9316 61.783 38.7533 61.5244 38.6152 61.2441C38.4113 60.7891 38.1107 60.3838 37.7344 60.0566C37.3932 59.7715 36.8424 59.6289 36.082 59.6289C35.48 59.5997 34.8843 59.7624 34.3809 60.0937C33.9499 60.4023 33.7337 60.7741 33.7324 61.209C33.7273 61.4594 33.8049 61.7044 33.9531 61.9062C34.1167 62.1154 34.3232 62.2873 34.5586 62.4102C34.8066 62.5475 35.0685 62.6581 35.3398 62.7402C35.6016 62.8203 36.0371 62.9355 36.6426 63.0898C37.3393 63.2487 38.0271 63.4443 38.7031 63.6758C39.2579 63.862 39.7838 64.1249 40.2656 64.457C40.6914 64.7569 41.0379 65.1557 41.2754 65.6191C41.5319 66.1555 41.6559 66.7456 41.6367 67.3398C41.6496 68.1155 41.4336 68.8777 41.0156 69.5312ZM54.791 59.3477C54.7537 59.5032 54.7074 59.6565 54.6523 59.8066C54.5977 59.9564 54.543 60.1107 54.4883 60.2695L51.2285 69.0586C51.1139 69.3945 50.9974 69.7142 50.8789 70.0176C50.7746 70.2978 50.6396 70.5657 50.4766 70.8164C50.1963 71.1864 49.7948 71.446 49.3425 71.5499C48.8901 71.6538 48.4156 71.5953 48.002 71.3848C47.7549 71.2465 47.544 71.0518 47.3867 70.8164C47.2225 70.5634 47.0856 70.2937 46.9785 70.0117C46.8633 69.7129 46.7461 69.3945 46.6309 69.0586L43.418 60.3398C43.3633 60.1797 43.3066 60.0234 43.248 59.8711C43.1868 59.7096 43.1379 59.5438 43.1016 59.375C43.0663 59.2277 43.0466 59.0772 43.043 58.9258C43.0452 58.7657 43.0796 58.6076 43.144 58.461C43.2084 58.3144 43.3016 58.1822 43.418 58.0723C43.5397 57.945 43.6866 57.8445 43.8494 57.7772C44.0122 57.7099 44.1872 57.6774 44.3633 57.6816C44.8281 57.6816 45.1582 57.8223 45.3516 58.1074C45.6049 58.536 45.8019 58.9956 45.9375 59.4746L48.9844 68.498L52.041 59.4102C52.1992 58.9336 52.3203 58.6016 52.3984 58.4141C52.4857 58.2168 52.6198 58.0439 52.7891 57.9102C53.0064 57.7495 53.2731 57.67 53.543 57.6855C53.7703 57.6836 53.9938 57.7437 54.1895 57.8594C54.3837 57.9697 54.5454 58.1294 54.6582 58.3223C54.7669 58.4986 54.8256 58.7011 54.8281 58.9082C54.829 59.0546 54.814 59.2006 54.7832 59.3437L54.791 59.3477ZM68.9355 68.4863C68.9445 68.7634 68.9102 69.0401 68.834 69.3066C68.7611 69.5209 68.6331 69.7122 68.4629 69.8613C68.2523 70.0487 68.0194 70.2094 67.7695 70.3398C67.0286 70.7513 66.242 71.0745 65.4258 71.3027C64.6224 71.5117 63.7949 71.6135 62.9648 71.6055C62.0018 71.6179 61.0444 71.4564 60.1387 71.1289C59.3203 70.8322 58.5774 70.3587 57.9629 69.7422C57.3496 69.1156 56.8786 68.3641 56.582 67.5391C56.249 66.6123 56.0856 65.6331 56.0996 64.6484C56.0882 63.6708 56.2468 62.6987 56.5684 61.7754C56.8561 60.9441 57.3266 60.1879 57.9453 59.5625C58.5723 58.9436 59.3269 58.469 60.1562 58.1719C61.1058 57.8382 62.107 57.6755 63.1133 57.6914C63.9293 57.677 64.7419 57.7992 65.5176 58.0527C66.1349 58.2514 66.7108 58.5611 67.2168 58.9668C67.6136 59.2921 67.9449 59.6898 68.1934 60.1387C68.3915 60.47 68.5055 60.8449 68.5254 61.2305C68.5271 61.3952 68.4941 61.5584 68.4285 61.7096C68.3628 61.8607 68.2661 61.9962 68.1445 62.1074C68.0235 62.2249 67.8805 62.3174 67.7236 62.3794C67.5667 62.4414 67.3991 62.4718 67.2305 62.4687C67.0341 62.4689 66.8405 62.4221 66.666 62.332C66.4858 62.2394 66.3299 62.1055 66.2109 61.9414C65.9545 61.5243 65.6693 61.1255 65.3574 60.748C65.0959 60.4567 64.7749 60.2249 64.416 60.0684C63.9385 59.8686 63.4235 59.7747 62.9062 59.793C62.3265 59.7825 61.751 59.8936 61.2168 60.1191C60.7266 60.3324 60.2921 60.6559 59.9473 61.0645C59.5765 61.5102 59.3012 62.0274 59.1387 62.584C58.9453 63.2294 58.8511 63.9005 58.8594 64.5742C58.8594 66.1536 59.222 67.3685 59.9473 68.2187C60.6725 69.069 61.6836 69.4941 62.9805 69.4941C63.5811 69.4984 64.1791 69.4155 64.7559 69.248C65.3399 69.0692 65.9045 68.8323 66.4414 68.541V66.3516H64.3203C63.923 66.3754 63.5262 66.2967 63.168 66.123C63.0372 66.0415 62.9314 65.9254 62.8625 65.7875C62.7936 65.6496 62.7641 65.4954 62.7773 65.3418C62.7741 65.2018 62.8016 65.0627 62.858 64.9345C62.9143 64.8062 62.9981 64.6919 63.1035 64.5996C63.3506 64.3918 63.6679 64.2863 63.9902 64.3047H67.082C67.4066 64.2983 67.7307 64.3324 68.0469 64.4063C68.308 64.4718 68.5356 64.6319 68.6855 64.8555C68.8688 65.1725 68.9531 65.5371 68.9277 65.9023L68.9355 68.4863Z" fill="#C20000"/>
<path d="M85.8906 78.1738C84.8789 78.1738 84.0586 79.0625 84.0586 80.1582V92.8535C84.0586 94.6113 82.748 96.0273 81.1289 96.0273H18.8711C17.252 96.0273 15.9414 94.6074 15.9414 92.8535V80.1582C15.9414 79.0625 15.1211 78.1738 14.1094 78.1738C13.0977 78.1738 12.2793 79.0625 12.2793 80.1582V94.0469C12.2793 97.334 14.7402 100 17.7734 100H82.2266C85.2578 100 87.7188 97.334 87.7188 94.0469V80.1582C87.7207 79.0625 86.9023 78.1738 85.8906 78.1738Z" fill="#C20000"/>
</g>
<defs>
<clipPath id="clip0_216_36">
<rect width="100" height="100" fill="white"/>
</clipPath>
</defs>
</svg>
