<svg width="100" height="100" viewBox="0 0 100 100" fill="none" xmlns="http://www.w3.org/2000/svg">
<g clip-path="url(#clip0_216_73)">
<path d="M87.6953 5.95312V49.207H84.0332V7.14258C84.0332 5.38477 82.7227 3.96875 81.1035 3.96875H30.0254L33.6543 0H82.2012C85.2344 0 87.6953 2.66602 87.6953 5.95312Z" fill="#147F02"/>
<path d="M15.9141 19.4043V49.207H12.252V23.4121L15.9141 19.4043Z" fill="#147F02"/>
<path d="M33.6543 0V17.1875C33.6543 20.623 31.1055 23.4082 27.9668 23.4082H12.252L15.9141 19.4043L30.0254 3.97461L33.6543 0Z" fill="#147F02"/>
<path d="M51.7754 60.3516C51.0829 60.1571 50.3656 60.0656 49.6465 60.0801H47.8516V69.2148H49.916C50.3691 69.2148 50.7246 69.2031 50.9824 69.1777C51.2546 69.1499 51.5223 69.0882 51.7793 68.9941C52.0426 68.9035 52.286 68.7629 52.4961 68.5801C53.4076 67.8105 53.8633 66.4831 53.8633 64.5976C53.8633 63.2695 53.6628 62.2747 53.2617 61.6133C52.8607 60.9518 52.3652 60.5312 51.7754 60.3516Z" fill="#147F02"/>
<path d="M37.125 59.9609H35.291V64.0742H37.125C37.6688 64.0896 38.2119 64.0238 38.7363 63.8789C39.1282 63.7709 39.4748 63.5394 39.7246 63.2187C39.9644 62.8647 40.0836 62.4428 40.0645 62.0156C40.086 61.4827 39.8981 60.9625 39.541 60.5664C39.1491 60.1628 38.3437 59.9609 37.125 59.9609Z" fill="#147F02"/>
<path d="M95.7637 53.1738H4.23633C1.89258 53.1738 0 54.9512 0 57.1426V72.2227C0 74.4141 1.89648 76.1914 4.23633 76.1914H95.7637C98.1074 76.1914 100 74.4141 100 72.2227V57.1426C100 54.9512 98.1035 53.1738 95.7637 53.1738ZM41.5605 65.0723C40.7155 65.7767 39.4577 66.1296 37.7871 66.1309H35.291V69.9414C35.291 70.4857 35.1608 70.8984 34.9004 71.1797C34.7782 71.317 34.6275 71.4259 34.4588 71.4988C34.2901 71.5716 34.1075 71.6067 33.9238 71.6016C33.7381 71.6087 33.5531 71.5752 33.3817 71.5033C33.2103 71.4314 33.0567 71.323 32.9316 71.1855C32.6816 70.9069 32.5566 70.498 32.5566 69.959V59.5859C32.5566 58.987 32.694 58.5586 32.9688 58.3008C33.2435 58.043 33.681 57.9128 34.2812 57.9102H37.7793C38.5819 57.8852 39.3842 57.9653 40.166 58.1484C40.6936 58.2906 41.1819 58.5511 41.5938 58.9102C41.9961 59.2673 42.3086 59.7143 42.5059 60.2148C42.7217 60.7672 42.8278 61.3563 42.8184 61.9492C42.8236 63.3242 42.4043 64.3652 41.5605 65.0723ZM56.4043 66.8203C56.2773 67.4502 56.0574 68.0577 55.752 68.623C55.4576 69.1612 55.0761 69.647 54.6231 70.0605C54.2706 70.3797 53.8715 70.6432 53.4394 70.8418C53.0001 71.0418 52.5355 71.1811 52.0586 71.2559C51.5067 71.3399 50.9489 71.3798 50.3906 71.375H46.8477C46.4608 71.399 46.0743 71.3216 45.7266 71.1504C45.4859 71.0126 45.3097 70.785 45.2363 70.5176C45.1513 70.1707 45.1126 69.8141 45.1211 69.457V59.5859C45.1211 59 45.2513 58.5749 45.5117 58.3105C45.7721 58.0462 46.1973 57.916 46.7871 57.9199H50.3398C51.1405 57.906 51.9397 57.9926 52.7188 58.1777C53.386 58.3521 54.0025 58.6821 54.5176 59.1406C55.9173 60.3398 56.6178 62.1628 56.6191 64.6094C56.6267 65.3515 56.5573 66.0925 56.4121 66.8203H56.4043ZM68.0195 59.7285C67.7447 59.9423 67.3998 60.0455 67.0527 60.0176H61.6816V63.4609H66.1738C66.5089 63.4347 66.8418 63.5343 67.1074 63.7402C67.209 63.8358 67.2889 63.952 67.3418 64.081C67.3947 64.2101 67.4193 64.3489 67.4141 64.4883C67.4205 64.6277 67.3959 64.7669 67.3418 64.8956C67.2877 65.0243 67.2057 65.1394 67.1016 65.2324C66.8362 65.4343 66.5063 65.5322 66.1738 65.5078H61.6816V69.9414C61.6816 70.5039 61.5514 70.9212 61.291 71.1934C61.1626 71.3234 61.0096 71.4266 60.841 71.4971C60.6723 71.5676 60.4914 71.6038 60.3086 71.6038C60.1258 71.6038 59.9449 71.5676 59.7762 71.4971C59.6076 71.4266 59.4546 71.3234 59.3262 71.1934C59.0723 70.9173 58.9453 70.5013 58.9453 69.9453V59.5937C58.9333 59.2651 58.9933 58.9378 59.1211 58.6348C59.2299 58.3934 59.4239 58.2008 59.666 58.0938C59.9674 57.9703 60.2917 57.9124 60.6172 57.9238H67.043C67.3946 57.8886 67.7466 57.9885 68.0273 58.2031C68.1282 58.3027 68.2083 58.4213 68.263 58.5521C68.3176 58.6828 68.3458 58.8231 68.3458 58.9648C68.3458 59.1066 68.3176 59.2469 68.263 59.3776C68.2083 59.5084 68.1282 59.627 68.0273 59.7266L68.0195 59.7285Z" fill="#147F02"/>
<path d="M85.8906 78.1738C84.8789 78.1738 84.0586 79.0625 84.0586 80.1582V92.8535C84.0586 94.6113 82.748 96.0273 81.1289 96.0273H18.8711C17.252 96.0273 15.9414 94.6074 15.9414 92.8535V80.1582C15.9414 79.0625 15.1211 78.1738 14.1094 78.1738C13.0977 78.1738 12.2793 79.0625 12.2793 80.1582V94.0469C12.2793 97.334 14.7402 100 17.7734 100H82.2266C85.2578 100 87.7188 97.334 87.7188 94.0469V80.1582C87.7207 79.0625 86.9023 78.1738 85.8906 78.1738Z" fill="#147F02"/>
<rect y="51" width="100" height="26" rx="5" fill="#147F02"/>
<path d="M27.1477 57.4545L30.081 62.4119H30.1946L33.142 57.4545H36.6151L32.1761 64.7273L36.7145 72H33.1776L30.1946 67.0355H30.081L27.098 72H23.5753L28.1278 64.7273L23.6605 57.4545H27.1477ZM38.5611 72V57.4545H41.6364V69.4645H47.8722V72H38.5611ZM57.7994 61.6378C57.7425 61.0649 57.4987 60.6198 57.0678 60.3026C56.637 59.9853 56.0522 59.8267 55.3136 59.8267C54.8117 59.8267 54.3879 59.8977 54.0423 60.0398C53.6966 60.1771 53.4315 60.3688 53.2468 60.6151C53.0669 60.8613 52.9769 61.1406 52.9769 61.4531C52.9674 61.7135 53.0219 61.9408 53.1403 62.1349C53.2634 62.3291 53.4315 62.4972 53.6445 62.6392C53.8576 62.7765 54.1038 62.8973 54.3832 63.0014C54.6625 63.1009 54.9608 63.1861 55.2781 63.2571L56.5849 63.5696C57.2193 63.7116 57.8017 63.901 58.332 64.1378C58.8623 64.3745 59.3216 64.6657 59.7099 65.0114C60.0981 65.357 60.3988 65.7642 60.6119 66.233C60.8297 66.7017 60.9409 67.2391 60.9457 67.8452C60.9409 68.7353 60.7137 69.5071 60.2638 70.1605C59.8188 70.8092 59.1748 71.3134 58.332 71.6733C57.494 72.0284 56.4831 72.206 55.2994 72.206C54.1251 72.206 53.1024 72.026 52.2312 71.6662C51.3647 71.3063 50.6876 70.7737 50.1999 70.0682C49.717 69.358 49.4637 68.4796 49.44 67.4332H52.4158C52.449 67.9209 52.5887 68.3281 52.8349 68.6548C53.0858 68.9768 53.4196 69.2206 53.8363 69.3864C54.2577 69.5473 54.7335 69.6278 55.2638 69.6278C55.7847 69.6278 56.2369 69.5521 56.6204 69.4006C57.0086 69.2491 57.3093 69.0384 57.5224 68.7685C57.7354 68.4986 57.842 68.1884 57.842 67.8381C57.842 67.5114 57.7449 67.2367 57.5508 67.0142C57.3614 66.7917 57.082 66.6023 56.7127 66.446C56.3481 66.2898 55.9007 66.1477 55.3704 66.0199L53.7866 65.6222C52.5603 65.3239 51.592 64.8575 50.8817 64.223C50.1715 63.5885 49.8188 62.7339 49.8235 61.6591C49.8188 60.7784 50.0531 60.009 50.5266 59.3509C51.0049 58.6927 51.6606 58.179 52.494 57.8097C53.3273 57.4403 54.2743 57.2557 55.3349 57.2557C56.4144 57.2557 57.3567 57.4403 58.1616 57.8097C58.9712 58.179 59.601 58.6927 60.0508 59.3509C60.5006 60.009 60.7326 60.7713 60.7468 61.6378H57.7994ZM65.8977 57.4545L68.831 62.4119H68.9446L71.892 57.4545H75.3651L70.9261 64.7273L75.4645 72H71.9276L68.9446 67.0355H68.831L65.848 72H62.3253L66.8778 64.7273L62.4105 57.4545H65.8977Z" fill="white"/>
</g>
<defs>
<clipPath id="clip0_216_73">
<rect width="100" height="100" fill="white"/>
</clipPath>
</defs>
</svg>
